# xmcd
#
# Track frame offsets:
#	150
#	5868
#	12563
#	19740
#	30303
#	40100
#	50353
#	58062
#	67465
#	73100
#	83283
#	90450
#	102687
#	115794
#
# Disc length: 1608 seconds
#
# Revision: 1
# Processed by: cddbd v1.5.2PL0 Copyright (c) Steve Scherf et al.
# Submitted via: audiograbber 1.83.01
#
DISCID=b806460e
DTITLE=Howdy Town - Songs to Sing and Yodel
DYEAR=2006
DGENRE=Country
TTITLE0=Howdy Town
TTITLE1=Work Is How The West Was Won
TTITLE2=She'll Be Comin' Round The Mountain
TTITLE3=Be A Friend And Share
TTITLE4=We Are All A Little Different Than Each Other
TTITLE5=The Big Rock Candy Mountain
TTITLE6=Friend Can Be Their Name
TTITLE7=I've Been Workin' On The Railroad
TTITLE8=Work Is Fun
TTITLE9=Honesty's The Way To Go
TTITLE10=Jumpin' Junipers (Honesty Part 2)
TTITLE11=You're Happy When You Share
TTITLE12=Home On The Range
TTITLE13=So Long
EXTD=
EXTT0=
EXTT1=
EXTT2=
EXTT3=
EXTT4=
EXTT5=
EXTT6=
EXTT7=
EXTT8=
EXTT9=
EXTT10=
EXTT11=
EXTT12=
EXTT13=
PLAYORDER=
